<?xml version="1.0" encoding="UTF-8" standalone="no"?>
<!-- Created with Inkscape (http://www.inkscape.org/) -->

<svg
   width="111.19209mm"
   height="21.814169mm"
   viewBox="0 0 111.19209 21.814169"
   version="1.1"
   id="svg1"
   inkscape:version="1.3 (0e150ed, 2023-07-21)"
   sodipodi:docname="4bw-logo.svg"
   xmlns:inkscape="http://www.inkscape.org/namespaces/inkscape"
   xmlns:sodipodi="http://sodipodi.sourceforge.net/DTD/sodipodi-0.dtd"
   xmlns="http://www.w3.org/2000/svg"
   xmlns:svg="http://www.w3.org/2000/svg">
  <sodipodi:namedview
     id="namedview1"
     pagecolor="#ffffff"
     bordercolor="#000000"
     borderopacity="0.25"
     inkscape:showpageshadow="2"
     inkscape:pageopacity="0.0"
     inkscape:pagecheckerboard="0"
     inkscape:deskcolor="#d1d1d1"
     inkscape:document-units="mm"
     inkscape:zoom="0.53406908"
     inkscape:cx="240.60558"
     inkscape:cy="29.958671"
     inkscape:window-width="1344"
     inkscape:window-height="429"
     inkscape:window-x="0"
     inkscape:window-y="25"
     inkscape:window-maximized="0"
     inkscape:current-layer="layer1" />
  <defs
     id="defs1" />
  <g
     inkscape:label="Ebene 1"
     inkscape:groupmode="layer"
     id="layer1"
     transform="translate(-49.477084,-137.58333)">
    <path
       style="fill:#faf3dd;fill-opacity:1"
       d="m 59.192804,159.37071 c -3.247295,-0.48157 -5.792929,-1.94089 -7.562389,-4.33524 -1.446637,-1.95752 -2.155122,-4.12171 -2.153328,-6.57773 0.002,-2.73495 0.897885,-5.07711 2.796386,-7.31071 0.818642,-0.96314 2.601021,-2.21902 3.85498,-2.71626 2.849509,-1.12992 5.649861,-1.12992 8.499369,0 1.33782,0.53049 3.021519,1.7413 3.915045,2.81546 l 0.505354,0.60752 -0.879285,0.024 -0.879286,0.024 -0.477643,-0.4473 c -1.026638,-0.96144 -2.639522,-1.84927 -4.063202,-2.23665 -0.765969,-0.20842 -0.987888,-0.2308 -2.328334,-0.23487 -1.261787,-0.004 -1.592322,0.0235 -2.227324,0.18391 -2.547527,0.64371 -4.721394,2.25391 -6.027995,4.46497 -1.341927,2.27083 -1.704023,4.75583 -1.059913,7.27398 0.201383,0.78731 0.854849,2.19465 1.399324,3.01365 1.391698,2.09342 4.04305,3.72656 6.605503,4.06878 1.061827,0.14181 2.508375,0.0576 3.529164,-0.20538 1.330032,-0.34267 2.858088,-1.14104 3.936482,-2.05671 l 0.44024,-0.37381 0.914427,0.0241 0.914426,0.0241 -0.804333,0.80754 c -0.768403,0.77147 -1.932759,1.63513 -2.786926,2.06719 -0.53772,0.27199 -2.038372,0.77498 -2.801075,0.93886 -0.613218,0.13176 -2.73883,0.23395 -3.259667,0.15671 z m 22.996173,-4.44287 c -0.698067,-0.1371 -1.437978,-0.55458 -2.001541,-1.12935 -0.870763,-0.88808 -1.309631,-2.01561 -1.309631,-3.3647 0,-0.97006 0.114619,-1.49077 0.510946,-2.32121 0.256213,-0.53685 0.453441,-0.80371 0.917639,-1.24161 1.129398,-1.06542 2.51328,-1.45375 4.122699,-1.15689 1.892405,0.34906 3.243896,2.12009 3.397046,4.45158 l 0.05188,0.78975 h -3.324383 -3.324384 l 0.05541,0.40217 c 0.09278,0.67337 0.455326,1.28987 0.931913,1.58468 0.364944,0.22575 0.505971,0.26041 1.16574,0.28652 0.674758,0.0267 0.797095,0.007 1.211186,-0.19566 0.253338,-0.12395 0.589077,-0.37544 0.746085,-0.55887 l 0.285469,-0.33351 h 0.986711 c 0.663205,0 0.986712,0.0306 0.986712,0.0935 0,0.22753 -0.645471,1.28985 -1.022917,1.68352 -0.464091,0.48404 -1.216903,0.87981 -1.931173,1.01527 -0.536659,0.10178 -1.92577,0.0989 -2.455406,-0.005 z m 3.208162,-5.66405 c 0,-0.24709 -0.250182,-0.85097 -0.48334,-1.16666 -0.3344,-0.45278 -0.810302,-0.65278 -1.54866,-0.65086 -0.536604,0.001 -0.703309,0.039 -1.075833,0.24286 -0.249657,0.1366 -0.531473,0.37817 -0.64984,0.55703 -0.230521,0.34834 -0.427421,0.97315 -0.347453,1.10254 0.03097,0.0501 0.850032,0.0827 2.078123,0.0827 1.963652,0 2.027003,-0.005 2.027003,-0.16762 z m 19.068731,5.62671 c -1.45027,-0.31496 -2.59725,-1.50961 -3.01754,-3.14298 -0.17292,-0.67202 -0.17446,-2.03925 -0.003,-2.70049 0.33063,-1.27541 0.90799,-2.07769 1.99611,-2.77375 0.64187,-0.4106 1.18174,-0.57444 2.06407,-0.62641 1.39586,-0.0822 2.28801,0.21848 3.21159,1.08244 0.8685,0.81244 1.36564,1.98342 1.46148,3.44242 l 0.0515,0.78368 h -3.28334 -3.28335 l 0.0588,0.4445 c 0.16768,1.26723 0.85547,1.84253 2.20058,1.84067 0.74609,-0.001 1.3258,-0.24871 1.75458,-0.74965 l 0.29975,-0.35019 h 0.98671 c 0.66497,0 0.98671,0.0306 0.98671,0.0937 0,0.21697 -0.52792,1.17507 -0.84755,1.53819 -0.4726,0.5369 -1.21975,0.97322 -1.92099,1.12181 -0.71365,0.15121 -2.01022,0.14932 -2.71606,-0.004 z m 3.25992,-5.73954 c -0.064,-0.39461 -0.37516,-1.0263 -0.63195,-1.28309 -0.3049,-0.30491 -1.03513,-0.50206 -1.6095,-0.43456 -0.98318,0.11556 -1.61421,0.70591 -1.76544,1.65167 l -0.0554,0.34643 h 2.0539 2.0539 z m 29.33928,5.74006 c -0.728,-0.15815 -1.32468,-0.49742 -1.93698,-1.10138 -1.10462,-1.08957 -1.5207,-2.71606 -1.18137,-4.61811 0.16827,-0.94322 0.48582,-1.54481 1.18535,-2.2456 0.91838,-0.92003 1.8913,-1.30324 3.30874,-1.30324 2.40154,0 4.16813,1.43681 4.58173,3.72641 0.30107,1.66665 -0.11776,3.23811 -1.15996,4.35223 -0.56794,0.60713 -1.243,1.00158 -2.03265,1.18771 -0.66596,0.15698 -2.04678,0.15797 -2.76486,0.002 z m 2.30707,-1.81221 c 0.47996,-0.22517 0.79233,-0.55369 1.04568,-1.09973 0.31303,-0.67464 0.36618,-2.10646 0.1094,-2.94718 -0.32674,-1.06982 -1.0147,-1.59197 -2.0904,-1.58657 -1.52285,0.008 -2.34766,1.21606 -2.21593,3.24654 0.0808,1.24591 0.53582,2.07147 1.33092,2.41491 0.42782,0.1848 1.3986,0.16988 1.82033,-0.028 z m -47.625001,1.76943 c -0.773054,-0.13512 -1.273177,-0.47838 -1.534188,-1.05299 -0.141254,-0.31097 -0.155596,-0.61431 -0.157286,-3.32667 l -0.0019,-2.9845 h -0.762 -0.762 v -0.80104 -0.80104 l 0.740833,-0.0245 0.740834,-0.0245 0.02332,-1.3335 0.02332,-1.3335 h 1.183183 1.183184 v 1.35466 1.35467 h 0.931333 0.931334 v 0.80433 0.80434 h -0.931334 -0.931333 v 2.36008 c 0,1.29805 0.02433,2.48173 0.05406,2.6304 0.08352,0.41762 0.370696,0.55482 1.147693,0.54833 l 0.660911,-0.006 v 0.90528 0.90528 l -0.3175,0.0525 c -0.423764,0.0701 -1.747313,0.0509 -2.222501,-0.0322 z m 6.157935,-0.001 c -0.675291,-0.11359 -1.136388,-0.38777 -1.396631,-0.83046 l -0.231637,-0.39404 -0.02511,-3.06917 -0.02511,-3.06916 h -0.758057 -0.758058 v -0.80104 -0.80104 l 0.740833,-0.0245 0.740834,-0.0245 0.02332,-1.3335 0.02332,-1.3335 h 1.183183 1.183184 v 1.35466 1.35467 h 0.931333 0.931332 v 0.80433 0.80434 H 99.536473 98.60514 v 2.36008 c 0,1.29805 0.02433,2.48173 0.05406,2.6304 0.08375,0.41875 0.3727,0.5565 1.149002,0.54775 l 0.659598,-0.007 v 0.90652 0.90652 l -0.3175,0.0525 c -0.426003,0.0704 -1.744456,0.0507 -2.245229,-0.0335 z m -30.626603,-6.22016 v -6.223 l 3.323167,0.001 c 3.521954,0.002 4.010625,0.0438 4.86636,0.42097 0.577352,0.25446 1.173727,0.87187 1.383364,1.43218 0.219694,0.58718 0.238649,1.6016 0.04104,2.19653 -0.167965,0.5057 -0.70399,1.14137 -1.157578,1.37278 -0.180595,0.0921 -0.328212,0.19531 -0.328038,0.22929 1.75e-4,0.034 0.174463,0.1334 0.387308,0.22094 0.581127,0.23901 1.191896,0.76262 1.424124,1.2209 0.44043,0.86914 0.500053,2.20435 0.141098,3.15975 -0.229515,0.61089 -0.968171,1.33388 -1.724243,1.68769 -0.985235,0.46105 -1.379904,0.50041 -5.033438,0.50203 l -3.323167,0.001 z m 6.782518,3.96455 c 0.21527,-0.0975 0.499494,-0.32008 0.634026,-0.49646 0.206019,-0.2701 0.24809,-0.41284 0.271224,-0.92022 0.02263,-0.49629 -0.0066,-0.66656 -0.16836,-0.98086 -0.403432,-0.78385 -0.919752,-0.93201 -3.247908,-0.93201 h -1.646833 v 1.72155 c 0,0.94686 0.02858,1.75071 0.0635,1.78633 0.03493,0.0356 0.88265,0.0499 1.883834,0.0316 1.621799,-0.0296 1.862888,-0.0524 2.210517,-0.20993 z m -0.277987,-5.34535 c 0.831045,-0.44359 0.940274,-1.77996 0.19663,-2.4057 -0.395253,-0.33258 -0.969777,-0.41864 -2.594827,-0.38869 l -1.439333,0.0265 -0.02315,1.50899 -0.02314,1.50898 1.758812,-0.0273 c 1.646798,-0.0256 1.782134,-0.0398 2.125009,-0.22278 z m 37.945468,3.11646 v -4.48733 h 1.143 1.143 v 0.80433 c 0,0.46866 0.0346,0.80434 0.0829,0.80434 0.0456,0 0.15678,-0.14288 0.24701,-0.3175 0.22795,-0.44112 0.81077,-0.9765 1.36328,-1.2523 0.37477,-0.18708 0.58943,-0.23417 1.10066,-0.24147 l 0.6351,-0.009 0.0236,1.1107 0.0235,1.1107 -0.58023,-0.0415 c -1.15761,-0.0828 -2.05473,0.40721 -2.48411,1.35689 -0.19418,0.4295 -0.20088,0.51939 -0.22677,3.04606 l -0.0267,2.6035 h -1.22215 -1.22216 z m 8.60739,2.05317 c -0.35783,-1.33879 -1.01316,-3.78672 -1.45629,-5.43983 -0.77973,-2.90881 -1.13976,-4.32797 -1.13976,-4.4927 0,-0.0459 0.55306,-0.0793 1.31233,-0.0793 1.06559,0 1.31233,0.0222 1.31233,0.118 0,0.0649 0.33786,1.54127 0.75079,3.28083 0.41293,1.73956 0.84156,3.57888 0.9525,4.08738 0.11094,0.50851 0.24339,0.93832 0.29433,0.95515 0.057,0.0188 0.31223,-0.85751 0.66377,-2.27921 0.31414,-1.2704 0.79633,-3.15984 1.07155,-4.19876 0.27522,-1.03892 0.5004,-1.9057 0.5004,-1.92617 0,-0.0205 0.56197,-0.0362 1.24883,-0.035 l 1.24883,0.002 0.84187,3.36331 c 0.46303,1.84982 0.92825,3.74149 1.03383,4.20371 0.24556,1.07506 0.27249,1.14753 0.36416,0.97993 0.0382,-0.0699 0.30545,-1.13665 0.59387,-2.37067 0.28843,-1.23401 0.7353,-3.12949 0.99305,-4.21216 l 0.46864,-1.9685 h 1.30817 c 1.20629,0 1.30471,0.0115 1.26387,0.14817 -0.18834,0.63012 -1.19844,4.35963 -1.43892,5.31283 -0.16448,0.65193 -0.60112,2.27118 -0.97031,3.59833 -0.36919,1.32715 -0.71639,2.63208 -0.77157,2.89983 l -0.10033,0.48684 h -1.33647 -1.33646 l -0.51569,-2.01084 c -0.28363,-1.10595 -0.6334,-2.52518 -0.77727,-3.15383 -0.40779,-1.7819 -0.81248,-3.24779 -0.90514,-3.27868 -0.0464,-0.0155 -0.1711,0.36347 -0.27704,0.84211 -0.10595,0.47863 -0.5462,2.27994 -0.97833,4.0029 -0.43214,1.72297 -0.80966,3.23745 -0.83893,3.3655 l -0.0532,0.23284 h -1.33839 -1.33839 z m 24.41262,-2.05317 v -4.48733 h 1.143 1.143 v 0.80433 c 0,0.44239 0.0317,0.80434 0.0704,0.80434 0.0387,0 0.19151,-0.18689 0.33952,-0.41531 0.57904,-0.89361 1.44312,-1.39225 2.42641,-1.40022 l 0.59267,-0.005 0.0235,1.1107 0.0236,1.1107 -0.58023,-0.0415 c -0.78155,-0.0559 -1.39852,0.12851 -1.89661,0.56695 -0.75715,0.66647 -0.91292,1.43571 -0.91395,4.51333 l -6.4e-4,1.92617 h -1.18533 -1.18533 z m 7.112,-1.73566 v -6.223 h 1.18533 1.18533 v 3.297 c 0,1.81335 0.0288,3.31482 0.0641,3.3366 0.0352,0.0218 0.74961,-0.68012 1.5875,-1.55979 l 1.52342,-1.59939 1.40536,-0.002 1.40535,-0.002 -1.35613,1.3335 c -0.74587,0.73343 -1.48704,1.47588 -1.64704,1.6499 l -0.29092,0.3164 0.44538,0.6996 c 0.24496,0.38478 0.77798,1.1949 1.18449,1.80027 0.40652,0.60536 1.04903,1.56739 1.42782,2.13783 l 0.6887,1.03717 h -1.46307 -1.46307 l -0.41534,-0.6985 c -1.04089,-1.75052 -2.0281,-3.28084 -2.11648,-3.28084 -0.0533,0 -0.29556,0.20123 -0.53844,0.44717 l -0.44161,0.44716 v 1.5425 1.54251 h -1.18533 -1.18533 z m -91.863342,4.61433 v -1.43933 h -2.582334 -2.582333 v -1.09718 -1.09718 l 0.359833,-0.48702 c 1.201539,-1.62625 2.474799,-3.32953 2.682757,-3.5888 0.132864,-0.16565 0.503171,-0.66095 0.822904,-1.10067 0.319733,-0.43972 0.771422,-1.05509 1.003753,-1.36751 l 0.42242,-0.56802 1.0795,-0.003 1.0795,-0.003 v 3.68299 3.683 h 0.804333 0.804334 v 0.97367 0.97367 h -0.804334 -0.804333 v 1.43933 1.43933 h -1.143 -1.143 z m 0,-5.54567 c 0,-1.19583 -0.03343,-2.159 -0.07493,-2.159 -0.04121,0 -0.141136,0.10105 -0.222054,0.22455 -0.08092,0.12349 -0.7711,1.06084 -1.533738,2.083 -0.762637,1.02215 -1.386613,1.89266 -1.386613,1.93446 0,0.0422 0.714997,0.076 1.608667,0.076 h 1.608667 z"
       id="path1" />
  </g>
</svg>
